<?xml version="1.0" standalone="no"?>
<!DOCTYPE svg PUBLIC "-//W3C//DTD SVG 20010904//EN"
 "http://www.w3.org/TR/2001/REC-SVG-20010904/DTD/svg10.dtd">
<svg version="1.0" xmlns="http://www.w3.org/2000/svg"
 width="1117.000000pt" height="941.000000pt" viewBox="0 0 1117.000000 941.000000"
 preserveAspectRatio="xMidYMid meet">

<g transform="translate(0.000000,941.000000) scale(0.100000,-0.100000)"
fill="currentColor" stroke="none">
<path d="M3050 9335 c-30 -13 -98 -42 -150 -65 -128 -56 -372 -183 -500 -260
-556 -334 -1022 -755 -1403 -1265 -791 -1059 -1108 -2386 -881 -3688 287
-1649 1451 -3058 3024 -3659 182 -69 501 -168 544 -168 8 0 67 66 131 148 400
511 735 1101 972 1707 411 1052 557 2219 417 3345 -123 995 -457 1941 -986
2797 -71 115 -84 129 -579 625 -279 280 -513 508 -520 508 -8 0 -39 -11 -69
-25z"/>
<path d="M5975 8874 c-395 -37 -594 -71 -894 -150 -159 -42 -475 -145 -489
-159 -8 -8 6169 -6185 6185 -6185 33 0 170 453 232 765 63 316 81 488 88 835
7 374 -13 640 -73 970 -177 964 -655 1860 -1360 2550 -169 165 -258 245 -393
351 -517 406 -1125 711 -1746 874 -241 63 -390 91 -730 136 -77 10 -739 21
-820 13z"/>
<path d="M4915 7543 c604 -1311 790 -2843 519 -4273 -201 -1060 -643 -2068
-1280 -2920 -60 -80 -115 -153 -122 -162 -56 -75 176 88 404 283 846 726 1441
1633 1769 2694 175 565 255 1104 255 1715 0 447 -42 833 -135 1257 l-26 118
-722 723 c-397 397 -725 722 -728 722 -4 0 26 -71 66 -157z"/>
<path d="M6629 5985 c-2 -13 -3 -4 20 -146 131 -793 96 -1628 -100 -2414 -223
-894 -631 -1693 -1232 -2415 -211 -253 -621 -647 -891 -858 -16 -12 -27 -24
-24 -27 2 -3 40 -10 83 -16 l79 -11 202 101 c742 368 1358 883 1855 1551 660
887 1028 1980 1029 3055 l0 170 -510 510 c-280 280 -511 505 -511 500z"/>
<path d="M7916 4729 c-3 -17 -6 -73 -6 -124 0 -170 -40 -511 -91 -775 -274
-1415 -1131 -2694 -2334 -3485 -140 -91 -292 -183 -372 -224 -87 -44 -64 -45
317 -20 195 13 228 23 533 175 1405 699 2416 1976 2767 3493 16 73 30 140 30
149 0 15 -816 842 -831 842 -4 0 -9 -14 -13 -31z"/>
<path d="M8966 3627 c-100 -424 -304 -938 -529 -1334 -429 -753 -1010 -1377
-1723 -1851 -89 -59 -177 -115 -195 -126 -65 -36 -12 -26 137 25 1089 374
2001 1118 2594 2114 115 194 314 602 336 691 6 24 -18 51 -282 315 -159 159
-293 289 -299 289 -5 0 -23 -55 -39 -123z"/>
</g>
</svg>
